<svg width="65" height="29" viewBox="0 0 65 29" fill="none" xmlns="http://www.w3.org/2000/svg">
<g clip-path="url(#clip0_182_3812)">
<path d="M28.6426 0V29H23.6074V21.1199H18.9951V17.019H23.6074V10.1095H18.9951V5.97505H23.6074V0H28.6426Z" fill="#333333"/>
<path d="M17.3489 5.97508C16.7947 3.73025 15.4001 1.99771 13.023 1.10184L12.8838 1.05036L12.7527 1.00402L12.5733 0.944807L12.3886 0.888171L12.3351 0.872725L12.1343 0.816089C11.9844 0.777474 11.8318 0.738861 11.6766 0.705394L11.441 0.656481C10.9262 0.560254 10.406 0.493206 9.88304 0.455683L9.6448 0.44281H9.37711H9.14155H8.80961C2.65279 0.44281 0.0107117 3.77659 0.0107117 8.4516V19.2046C0.0107117 23.9105 2.65279 27.234 8.80961 27.2469H9.14155H9.37711C9.84289 27.2315 10.2873 27.1954 10.7156 27.1413L10.9672 27.1053L11.2135 27.0641L11.441 27.0229H11.4704C11.623 26.992 11.7756 26.9586 11.9228 26.9225L12.1209 26.8736L12.2628 26.835C12.3404 26.8144 12.4207 26.7912 12.4984 26.7655C15.368 25.8284 16.9741 23.8024 17.4613 21.1225C17.5737 20.4821 17.6292 19.8336 17.6273 19.184V8.431C17.6347 7.6047 17.5413 6.78042 17.3489 5.97508ZM12.659 19.184C12.659 21.5421 11.5186 23.1897 8.83103 23.1897C6.14344 23.1897 5.00309 21.5421 5.00309 19.184V8.431C5.00309 6.0729 6.11132 4.42532 8.83103 4.42532C11.5507 4.42532 12.659 6.0729 12.659 8.431V19.184Z" fill="#333333"/>
<path d="M34.082 26.5801V1.06578H50.4592V5.10235H39.053V22.5744H54.3112V26.5801H34.082ZM55.7648 29.0026V0H60.8027V10.8972H65V15.0162H60.8027V29L55.7648 29.0026Z" fill="#333333"/>
</g>
<defs>
<clipPath id="clip0_182_3812">
<rect width="65" height="29" fill="white"/>
</clipPath>
</defs>
</svg>
