<svg width="35" height="35" viewBox="0 0 35 35" fill="none" xmlns="http://www.w3.org/2000/svg">
<path d="M20.3226 1.12903C20.3226 0.505485 20.8281 0 21.4516 0H33.871C34.4945 0 35 0.505485 35 1.12903V13.5484C35 14.1719 34.4945 14.6774 33.871 14.6774H22.0586C21.819 14.6774 21.5893 14.7726 21.4199 14.942L14.6966 21.6652C14.3738 21.988 14.3477 22.4982 14.5914 22.8842C15.3611 24.1037 15.8065 25.5482 15.8065 27.0968C15.8065 31.4616 12.2681 35 7.90323 35C3.53839 35 0 31.4616 0 27.0968C0 22.7319 3.53839 19.1935 7.90323 19.1935C9.4518 19.1935 10.8963 19.6389 12.1158 20.4086C12.5018 20.6523 13.012 20.6262 13.3348 20.3034L20.058 13.5801C20.2274 13.4107 20.3226 13.181 20.3226 12.9414V1.12903Z" fill="url(#paint0_radial_220_6245)"/>
<defs>
<radialGradient id="paint0_radial_220_6245" cx="0" cy="0" r="1" gradientUnits="userSpaceOnUse" gradientTransform="translate(35) rotate(135) scale(49.4975)">
<stop stop-color="#0075FF"/>
<stop offset="0.229167" stop-color="#0157FF"/>
<stop offset="0.34375" stop-color="#0157FF"/>
<stop offset="0.729167" stop-color="#1E1E1E"/>
</radialGradient>
</defs>
</svg>
