<svg width="235" height="235" viewBox="0 0 235 235" fill="none" xmlns="http://www.w3.org/2000/svg">
<path fill-rule="evenodd" clip-rule="evenodd" d="M69 26C68.4477 26 68 26.4477 68 27V52C68 52.5523 68.4477 53 69 53H79C79.5523 53 80 52.5523 80 52V27C80 26.4477 79.5523 26 79 26H69ZM167.949 119C139.797 119 117 141.848 117 170C117 198.152 139.797 221 167.949 221C196.152 221 219 198.152 219 170C219 141.848 196.152 119 167.949 119ZM168 210.8C145.458 210.8 127.2 192.542 127.2 170C127.2 147.458 145.458 129.2 168 129.2C190.542 129.2 208.8 147.458 208.8 170C208.8 192.542 190.542 210.8 168 210.8ZM170.55 144.5H162.9V175.1L189.675 191.165L193.5 184.892L170.55 171.275V144.5ZM153 27C153 26.4477 153.448 26 154 26H164C164.552 26 165 26.4477 165 27V52C165 52.5523 164.552 53 164 53H154C153.448 53 153 52.5523 153 52V27ZM46 39H62V52C62 55.866 65.134 59 69 59H79C82.866 59 86 55.866 86 52V39H147V52C147 55.866 150.134 59 154 59H164C167.866 59 171 55.866 171 52V39H187C190.314 39 193 41.6863 193 45V48V83V116.543C189.812 115.049 186.468 113.833 183 112.924V83H50V175H109.209C109.496 178.425 110.076 181.767 110.924 185H46C42.6863 185 40 182.314 40 179V83V48V45C40 41.6863 42.6863 39 46 39Z" fill="#4287FF"/>
</svg>
