<svg width="235" height="235" viewBox="0 0 235 235" fill="none" xmlns="http://www.w3.org/2000/svg">
<path d="M175.5 45C165.825 45 158 52.552 158 61.8895C158 73.4221 172.506 89.9546 175.104 92.8234C175.317 93.0589 175.683 93.0588 175.896 92.8234C178.494 89.9546 193 73.4221 193 61.8895C193 52.552 185.175 45 175.5 45Z" fill="#4287FF"/>
<path d="M74 0C65.1543 0 58 7.23734 58 16.1857C58 27.2379 71.2624 43.0815 73.638 45.8308C73.8329 46.0564 74.1671 46.0564 74.362 45.8308C76.7376 43.0815 90 27.2379 90 16.1857C90 7.23734 82.8457 0 74 0Z" fill="#4287FF"/>
<path d="M41.5 97C31.825 97 24 104.867 24 114.593C24 126.606 38.5058 143.828 41.104 146.816C41.3173 147.061 41.6828 147.061 41.896 146.816C44.4942 143.828 59 126.606 59 114.593C59 104.867 51.175 97 41.5 97Z" fill="#4287FF"/>
<path d="M191.5 161C180.166 161 171 169.968 171 181.056C171 194.751 187.992 214.384 191.036 217.79C191.286 218.07 191.714 218.07 191.964 217.79C195.008 214.384 212 194.751 212 181.056C212 169.968 202.834 161 191.5 161Z" fill="#4287FF"/>
<path fill-rule="evenodd" clip-rule="evenodd" d="M40.1455 156.106C40.1628 155.124 40.753 154.244 41.6543 153.855L47.1891 151.466L49.1707 156.056L48.7055 156.257L49.2204 156.501L47.0781 161.019L41.5739 158.409C40.6869 157.988 40.1282 157.087 40.1455 156.106ZM54.6311 148.253L65.7007 143.475L67.6823 148.065L56.6126 152.844L54.6311 148.253ZM56.7565 160.075L67.7648 165.295L65.6225 169.813L54.6142 164.593L56.7565 160.075ZM74.0905 50.7381L81.9985 54.502L79.8497 59.0167L71.9417 55.2528L74.0905 50.7381ZM73.1427 140.263L84.2123 135.484L86.1939 140.075L75.1242 144.853L73.1427 140.263ZM75.3009 168.868L86.3092 174.089L84.1669 178.606L73.1585 173.386L75.3009 168.868ZM90.0877 58.3521L101.389 63.7312L99.2403 68.2459L87.9389 62.8668L90.0877 58.3521ZM91.6543 132.272L102.724 127.494L104.705 132.084L93.6358 136.863L91.6543 132.272ZM93.8452 177.662L104.854 182.882L102.711 187.4L91.7029 182.18L93.8452 177.662ZM109.478 67.5813L120.78 72.9603L118.631 77.475L107.329 72.096L109.478 67.5813ZM110.166 124.281L121.235 119.503L123.217 124.094L112.147 128.872L110.166 124.281ZM112.39 186.456L123.398 191.676L121.256 196.194L110.247 190.974L112.39 186.456ZM128.869 76.8104L140.17 82.1895L138.021 86.7042L126.72 81.3252L128.869 76.8104ZM128.677 116.291L139.747 111.512L141.729 116.103L130.659 120.881L128.677 116.291ZM130.934 195.25L141.942 200.47L139.8 204.988L128.792 199.768L130.934 195.25ZM148.259 86.0396L159.561 91.4186L157.412 95.9333L146.111 90.5543L148.259 86.0396ZM147.189 108.3L158.259 103.522L160.24 108.112L149.171 112.891L147.189 108.3ZM149.478 204.043L160.487 209.264L158.344 213.781L147.336 208.561L149.478 204.043ZM167.65 95.2688L173.301 97.9583C174.186 98.3799 174.744 99.2807 174.726 100.262C174.708 101.242 174.118 102.122 173.217 102.511L167.682 104.9L165.701 100.309L166.176 100.104L165.501 99.7835L167.65 95.2688ZM168.023 212.837L179.031 218.057L176.889 222.575L165.88 217.355L168.023 212.837ZM186.567 221.631L194.33 225.312L192.188 229.83L184.425 226.149L186.567 221.631Z" fill="#4287FF"/>
</svg>
