<svg width="235" height="235" viewBox="0 0 235 235" fill="none" xmlns="http://www.w3.org/2000/svg">
<path d="M41.6304 99.8626C41.8317 100.722 40.9012 101.402 40.1434 100.949L33.4466 96.9433C33.1305 96.7543 32.7361 96.7543 32.42 96.9433L25.7246 100.948C24.9665 101.401 24.0359 100.721 24.2377 99.8613L26.0047 92.332C26.09 91.9687 25.9659 91.5882 25.6829 91.345L19.8084 86.2978C19.1359 85.72 19.4922 84.6177 20.3757 84.5429L28.1419 83.8851C28.5108 83.8539 28.8323 83.6214 28.9775 83.2808L32.0144 76.1558C32.3598 75.3457 33.508 75.3452 33.854 76.1551L36.889 83.2598C37.0343 83.6 37.3556 83.8322 37.7242 83.8634L45.491 84.5212C46.3745 84.5961 46.7308 85.6984 46.0583 86.2762L40.1836 91.3236C39.9007 91.5667 39.7766 91.947 39.8616 92.3101L41.6304 99.8626Z" fill="#4287FF"/>
<path d="M65.6304 53.8626C65.8317 54.7224 64.9012 55.4021 64.1434 54.9488L57.4466 50.9433C57.1305 50.7543 56.7361 50.7543 56.42 50.9433L49.7246 54.948C48.9665 55.4014 48.0359 54.7213 48.2377 53.8613L50.0047 46.332C50.09 45.9687 49.9659 45.5882 49.6829 45.345L43.8084 40.2978C43.1359 39.72 43.4922 38.6177 44.3757 38.5429L52.1419 37.8851C52.5108 37.8539 52.8323 37.6214 52.9775 37.2808L56.0144 30.1558C56.3598 29.3457 57.508 29.3452 57.854 30.1551L60.889 37.2598C61.0343 37.6 61.3556 37.8322 61.7242 37.8634L69.491 38.5212C70.3745 38.5961 70.7308 39.6984 70.0583 40.2762L64.1836 45.3236C63.9007 45.5667 63.7766 45.947 63.8616 46.3101L65.6304 53.8626Z" fill="#4287FF"/>
<path d="M126.63 32.8626C126.832 33.7224 125.901 34.4021 125.143 33.9488L118.447 29.9433C118.131 29.7543 117.736 29.7543 117.42 29.9433L110.725 33.948C109.967 34.4014 109.036 33.7213 109.238 32.8613L111.005 25.332C111.09 24.9687 110.966 24.5882 110.683 24.345L104.808 19.2978C104.136 18.72 104.492 17.6177 105.376 17.5429L113.142 16.8851C113.511 16.8539 113.832 16.6214 113.977 16.2808L117.014 9.15583C117.36 8.34566 118.508 8.3452 118.854 9.15509L121.889 16.2598C122.034 16.6 122.356 16.8322 122.724 16.8634L130.491 17.5212C131.374 17.5961 131.731 18.6984 131.058 19.2762L125.184 24.3236C124.901 24.5667 124.777 24.947 124.862 25.3101L126.63 32.8626Z" fill="#4287FF"/>
<path d="M187.63 53.8626C187.832 54.7224 186.901 55.4021 186.143 54.9488L179.447 50.9433C179.131 50.7543 178.736 50.7543 178.42 50.9433L171.725 54.948C170.967 55.4014 170.036 54.7213 170.238 53.8613L172.005 46.332C172.09 45.9687 171.966 45.5882 171.683 45.345L165.808 40.2978C165.136 39.72 165.492 38.6177 166.376 38.5429L174.142 37.8851C174.511 37.8539 174.832 37.6214 174.977 37.2808L178.014 30.1558C178.36 29.3457 179.508 29.3452 179.854 30.1551L182.889 37.2598C183.034 37.6 183.356 37.8322 183.724 37.8634L191.491 38.5212C192.374 38.5961 192.731 39.6984 192.058 40.2762L186.184 45.3236C185.901 45.5667 185.777 45.947 185.862 46.3101L187.63 53.8626Z" fill="#4287FF"/>
<path d="M211.63 99.8626C211.832 100.722 210.901 101.402 210.143 100.949L203.447 96.9433C203.131 96.7543 202.736 96.7543 202.42 96.9433L195.725 100.948C194.967 101.401 194.036 100.721 194.238 99.8613L196.005 92.332C196.09 91.9687 195.966 91.5882 195.683 91.345L189.808 86.2978C189.136 85.72 189.492 84.6177 190.376 84.5429L198.142 83.8851C198.511 83.8539 198.832 83.6214 198.977 83.2808L202.014 76.1558C202.36 75.3457 203.508 75.3452 203.854 76.1551L206.889 83.2598C207.034 83.6 207.356 83.8322 207.724 83.8634L215.491 84.5212C216.374 84.5961 216.731 85.6984 216.058 86.2762L210.184 91.3236C209.901 91.5667 209.777 91.947 209.862 92.3101L211.63 99.8626Z" fill="#4287FF"/>
<path d="M117.5 61C89.5807 61 67 83.656 67 111.668C67 146.266 108.86 195.864 116.357 204.47C116.973 205.177 118.027 205.177 118.643 204.47C126.141 195.864 168 146.266 168 111.668C168 83.656 145.419 61 117.5 61Z" fill="#4287FF"/>
<path d="M97 116.72L114.575 136L141 105" stroke="white" stroke-width="9" stroke-linecap="square"/>
</svg>
